<svg width="993" height="361" viewBox="0 0 993 361" fill="none" xmlns="http://www.w3.org/2000/svg">
<g clip-path="url(#clip0_581_12945)">
<path d="M19 266.412C64.7397 266.956 178.796 251.491 234.63 161.864C284.493 81.822 306.507 27.9125 257.5 18.1121C208.493 8.31157 151.318 161.864 151.318 161.864C151.318 161.864 87.6096 318.687 138.25 338.289C188.89 357.892 314.675 209.238 295.072 183.101C275.469 156.964 226.462 183.101 215.027 238.642C203.005 297.037 242.462 335.767 268.935 338.289C303.24 341.558 340.812 313.787 389.818 174.933C352.247 313.787 358.781 331.755 380.017 341.558C402.705 352.031 456.795 320.322 520.503 174.933C476.397 318.688 496.546 331.757 510.702 338.289C538.473 351.105 592.38 310.52 638.12 192.902C595.647 312.154 611.901 329.837 643.021 335.024C682.226 341.558 755.736 250.079 772.072 170.033C759.003 256.613 770.107 277.31 790.041 282.748C808.01 287.65 832.514 279.481 876.62 174.933C837.414 282.748 829.247 317.055 855.384 333.389C879.887 348.702 940.329 325.221 973 253.344" stroke="#2E2E2E" stroke-opacity="0.1" stroke-width="35.9384" stroke-linecap="round" stroke-linejoin="round"/>
<circle cx="411.055" cy="109.592" r="19.6027" fill="#2E2E2E" fill-opacity="0.1"/>
<circle cx="894.588" cy="109.592" r="19.6027" fill="#2E2E2E" fill-opacity="0.1"/>
</g>
<defs>
<clipPath id="clip0_581_12945">
<rect width="993" height="361" fill="white"/>
</clipPath>
</defs>
</svg>
